<svg width="24" height="24" viewBox="0 0 24 24" fill="none" xmlns="http://www.w3.org/2000/svg">
<g clip-path="url(#clip0_1_2258)">
<path d="M17.613 12.848L23.878 19.113L20.707 22.284C20.1543 22.8344 19.4978 23.2695 18.7756 23.5641C18.0534 23.8586 17.2799 24.0068 16.5 24C9.25195 24 -4.90393e-05 14.748 -4.90393e-05 7.5C-0.00639235 6.71998 0.142003 5.94645 0.436551 5.22415C0.731098 4.50186 1.16595 3.84514 1.71595 3.292L4.88695 0.122L11.152 6.387L7.02695 10.512C8.25327 13.4263 10.5685 15.7469 13.48 16.98L17.613 12.848ZM22 10H24C23.997 7.34873 22.9425 4.80688 21.0678 2.93215C19.1931 1.05742 16.6512 0.0029116 14 0V2C16.121 2.00238 18.1544 2.846 19.6542 4.34578C21.1539 5.84555 21.9976 7.879 22 10ZM18 10H20C19.9984 8.40919 19.3657 6.88399 18.2408 5.75911C17.116 4.63424 15.5908 4.00159 14 4V6C15.0608 6 16.0782 6.42143 16.8284 7.17157C17.5785 7.92172 18 8.93913 18 10Z" fill="white"/>
</g>
<defs>
<clipPath id="clip0_1_2258">
<rect width="24" height="24" fill="white"/>
</clipPath>
</defs>
</svg>
