<svg width="730" height="471" viewBox="0 0 730 471" fill="none" xmlns="http://www.w3.org/2000/svg">
<path d="M717.44 387.008C686.555 433.924 633.565 461.496 577.426 461.496H111.44C17.7894 461.496 -34.6666 351.898 26.0094 290.18C86.6853 228.461 33.1366 175.755 126.776 126.271C217.54 78.3204 248.531 180.523 332.145 113.644C415.759 46.7656 537.479 53.0908 564.206 121.218C590.932 189.345 584.649 213.338 641.417 228.473C698.184 243.608 753.61 329.403 719.578 383.655C718.841 384.785 718.117 385.914 717.44 387.008Z" fill="#8ACB88"/>
<path d="M696.688 406.031C647.593 410.192 614.511 502.336 491.805 446.931C491.805 446.931 505.276 406.733 565.631 381.67C625.986 356.606 696.688 406.031 696.688 406.031Z" fill="#E4FDE1"/>
<path d="M508.554 440.035C521.396 433.396 534.648 427.582 548.229 422.629C551.602 421.321 555.023 420.156 558.456 419.062C561.889 417.968 565.346 416.815 568.802 415.745C572.259 414.675 575.751 413.736 579.256 412.785C581.002 412.321 582.736 411.822 584.494 411.382L589.78 410.11L595.078 408.921L600.411 407.874L605.757 406.828C607.527 406.483 609.32 406.222 611.114 405.948C614.678 405.413 618.241 404.759 621.9 404.462C625.558 404.165 629.098 403.57 632.733 403.44C647.181 402.2 661.726 402.703 676.054 404.938C661.701 404.64 647.345 405.395 633.101 407.197L630.441 407.506L627.792 407.91L622.482 408.683C618.918 409.135 615.426 409.872 611.91 410.49C610.152 410.835 608.346 411.073 606.636 411.441L601.385 412.535L596.135 413.629L590.909 414.877L585.682 416.066C583.936 416.482 582.213 416.958 580.479 417.398L575.276 418.741C573.542 419.181 571.831 419.716 570.097 420.168C566.652 421.119 563.184 422.047 559.763 423.117C556.342 424.187 552.885 425.138 549.464 426.232C535.768 430.559 522.179 435.256 508.554 440.035Z" fill="#648381"/>
<path d="M702.686 249.304C642.794 292.106 670.507 435.755 470.638 458.369C470.638 458.369 457.298 396.425 515.776 318.073C574.255 239.721 702.686 249.304 702.686 249.304Z" fill="#E4FDE1"/>
<path d="M483.93 441.07C492.76 422.163 503.33 404.12 515.503 387.174C527.621 370.1 541.13 354.058 555.89 339.212C570.601 324.283 586.689 310.78 603.939 298.883C621.187 287.088 639.801 276.923 659.65 270.598C641.447 280.295 624.143 291.595 607.942 304.364C591.815 317.066 576.486 330.753 562.044 345.347C547.579 359.953 533.858 375.278 520.932 391.264C507.948 407.315 495.773 423.961 483.93 441.07Z" fill="#648381"/>
<path d="M56.6087 393.226C105.311 400.847 131.812 495.036 258.106 448.477C258.106 448.477 247.498 407.422 189.043 378.174C130.589 348.926 56.6087 393.226 56.6087 393.226Z" fill="#E4FDE1"/>
<path d="M241.879 440.416C228.623 434.685 215.402 429.037 202.039 423.77C198.701 422.439 195.327 421.214 191.989 419.93C188.651 418.646 185.254 417.457 181.881 416.268C180.182 415.697 178.519 415.079 176.82 414.473L171.724 412.773C170.026 412.202 168.339 411.584 166.628 411.072L161.521 409.55L156.401 407.933L151.234 406.471L146.078 405.009C144.356 404.521 142.61 404.153 140.876 403.689C137.419 402.809 133.962 401.846 130.458 401.145L125.22 399.956L122.606 399.373L119.969 398.874C105.89 396.074 91.6256 394.31 77.2894 393.595C91.7363 392.346 106.281 392.837 120.611 395.057C124.174 395.45 127.738 396.246 131.301 396.853C134.865 397.459 138.429 398.303 141.992 399.076C143.762 399.48 145.556 399.872 147.29 400.336L152.54 401.763L157.779 403.178L162.982 404.771L168.161 406.412C169.883 406.97 171.594 407.601 173.304 408.171C176.725 409.36 180.158 410.549 183.52 411.869C186.881 413.189 190.279 414.473 193.605 415.899C196.931 417.326 200.28 418.682 203.559 420.215C216.744 426.135 229.543 432.882 241.879 440.416Z" fill="#648381"/>
<path d="M88.966 242.717C142.895 287.362 107.022 421.69 295.048 456.526C295.048 456.526 311.844 398.672 261.657 320.498C211.47 242.324 88.966 242.717 88.966 242.717Z" fill="#E4FDE1"/>
<path d="M283.597 439.227C273.429 422.237 262.964 405.639 251.739 389.6C240.513 373.561 228.552 358.116 215.794 343.35C203.076 328.557 189.473 314.549 175.062 301.403C160.575 288.174 144.958 276.239 128.391 265.735C146.827 272.987 163.837 283.843 179.469 296.172C195.064 308.589 209.439 322.467 222.398 337.619C235.382 352.717 247.087 368.871 257.393 385.914C267.781 402.822 276.554 420.672 283.597 439.227Z" fill="#648381"/>
<path d="M406.125 367.759C399.378 375.784 393.26 389.089 389.495 391.205C385.729 393.321 379.291 394.047 373.245 413.545C367.199 433.044 397.739 430.369 397.739 430.369C397.739 430.369 410.805 422.867 416.079 404.723L429.146 393.107L406.125 367.759Z" fill="#F6A397"/>
<path d="M382.463 428.229C389.385 425.633 395.63 421.504 400.732 416.149C409.154 407.244 410.235 391.407 410.235 391.407L414.274 398.945L422.339 390.325L426.224 389.945L429.086 393.107L416.02 404.724C410.746 422.867 397.679 430.369 397.679 430.369C392.459 430.751 387.212 430.281 382.142 428.978C382.234 428.723 382.342 428.473 382.463 428.229Z" fill="#D65863"/>
<path d="M451.929 297.932C442.569 304.78 436.986 309.75 432.341 319.072C427.697 328.393 398.523 361.874 396.705 364.834C394.888 367.795 413.086 399.48 427.697 407.244C427.697 407.244 449.743 381.789 462.465 372.158C475.187 362.528 470.84 328.381 464.948 316.896C461.434 310.045 457.059 303.672 451.929 297.932Z" fill="#349531"/>
<path d="M451.584 359.567V340.544C451.584 340.544 454.067 339.545 455.991 345.965C456.664 348.437 456.79 351.026 456.36 353.551L470.614 342.85C471.196 354.811 469.283 366.986 462.477 372.134C449.755 381.765 427.708 407.22 427.708 407.22C423.931 405.223 419.928 401.62 416.079 397.34C425.012 388.411 442.046 371.135 451.584 359.567Z" fill="#2F832C"/>
<path d="M360.879 422.867C358.444 423.616 356.651 424.781 356.651 427.848C356.651 430.916 357.185 435.767 358.337 437.669C359.49 439.571 365.464 440.701 365.464 440.701C365.464 440.701 365.072 428.051 363.801 425.732C363.197 424.461 362.162 423.445 360.879 422.867Z" fill="#F6A397"/>
<path d="M358.337 437.669C357.963 436.97 357.687 436.221 357.518 435.446C357.921 435.931 358.431 436.316 359.008 436.57C359.586 436.824 360.214 436.94 360.844 436.908L365.393 438.335C365.464 439.75 365.488 440.713 365.488 440.713C365.488 440.713 359.501 439.56 358.337 437.669Z" fill="#D65863"/>
<path d="M366.676 418.23C363.718 418.551 360.737 420.774 360.737 423.83C360.737 426.886 359.68 435.446 360.737 436.825C361.794 438.204 366.961 442.104 368.755 442.413C370.548 442.722 373.589 442.199 373.174 441.224C372.758 440.249 366.676 418.23 366.676 418.23Z" fill="#F6A397"/>
<path d="M360.321 434.519C362.554 437.051 368.291 436.825 368.291 436.825C369.348 437.919 370.295 439.114 371.119 440.393C371.297 440.916 372.306 441.582 372.473 442.129C371.286 442.517 370.024 442.619 368.79 442.426C367.032 442.117 362.031 438.359 360.843 436.92L360.321 434.542V434.519Z" fill="#D65863"/>
<path d="M377.711 413.189C368.648 413.7 367.021 414.544 366.64 418.23C366.26 421.916 366.533 432.7 367.698 435.446C368.862 438.193 369.491 440.618 370.964 442.104C371.978 443.017 373.283 443.54 374.647 443.578C374.647 443.578 379.612 436.29 379.826 430.167C380.04 424.044 377.711 413.189 377.711 413.189Z" fill="#F6A397"/>
<path d="M372.532 437.515C373.624 433.08 374.167 428.528 374.148 423.961C374.148 420.81 377.117 437.277 375.811 441.795C375.169 442.924 374.694 443.602 374.694 443.602C373.331 443.563 372.026 443.041 371.012 442.128C369.539 440.642 368.897 438.216 367.745 435.47C367.654 435.267 367.583 435.056 367.531 434.84C368.113 436.35 369.99 437.36 372.532 437.515Z" fill="#D65863"/>
<path d="M397.584 431.749C397.014 436.802 390.457 438.609 389.673 441.153C388.889 443.697 389.459 446.004 388.2 446.634C386.941 447.264 381.655 444.316 381.869 440.939C381.422 441.792 380.793 442.536 380.028 443.12C379.262 443.703 378.378 444.111 377.438 444.316C374.373 444.839 373.637 442.604 374.16 439.239C374.599 436.2 374.706 433.122 374.48 430.06C374.373 426.054 373.423 422.356 375.217 417.921C377.01 413.486 379.446 409.599 384.292 410.312C389.139 411.025 392.096 417.184 394.733 419.289C397.37 421.393 398.214 426.161 397.584 431.749Z" fill="#F6A397"/>
<path d="M381.869 440.939C382.166 434.519 382.498 429.263 382.498 428.229C382.498 427.195 382.166 420.394 384.577 419.978C384.945 419.906 390.267 423.283 390.374 425.566C390.481 427.849 390.374 431.927 388.723 433.092C387.072 434.257 381.869 440.939 381.869 440.939Z" fill="#D65863"/>
<path d="M601.706 311.617C592.084 299.406 588.782 298.158 578.852 292.367C568.921 286.577 531.337 271.87 523.533 270.015C515.729 268.16 484.5 282.737 474.237 287.398C463.974 292.058 450.919 296.636 448.698 301.178C441.25 316.372 455.991 337.904 456.074 383.025C456.074 406.661 461.491 459.807 461.491 459.807C461.491 459.807 579.683 460.021 581.334 457.548C582.985 455.075 587.131 370.196 589.198 352.802C591.265 335.407 601.706 311.617 601.706 311.617Z" fill="#349531"/>
<path d="M449.125 324.968C448.291 322.122 447.672 319.217 447.272 316.277C446.825 313.354 446.603 310.401 446.607 307.443C448.23 313.153 449.081 319.056 449.137 324.992L449.125 324.968Z" fill="#2F832C"/>
<path d="M493.326 307.194C488.753 305.482 477.943 308.454 475.959 309.144C473.976 309.833 477.147 301.368 478.335 300.322C479.523 299.275 481.364 296.838 484.928 297.944C488.491 299.049 491.497 303.139 492.055 304.483C492.41 305.417 492.835 306.323 493.326 307.194Z" fill="#2F832C"/>
<path d="M531.373 314.256C529.746 314.173 520.243 309.809 517.962 308.716C515.681 307.622 505.383 307.122 498.469 309.06C498.469 309.06 511.785 300.048 519.542 300.131C527.299 300.215 530.233 302.997 530.862 305.482C531.285 308.386 531.456 311.322 531.373 314.256Z" fill="#2F832C"/>
<path d="M480.568 440.772C481.827 439.583 558.967 442.021 560.57 433.948C562.174 425.875 563.184 411.191 563.184 411.191C553.895 416.161 540.401 414.092 540.401 414.092C549.405 411.156 562.423 396.377 563.053 392.025C564.965 378.638 557.815 341.721 557.815 341.721L563.017 331.222L569.135 327.81C577.155 332.101 584.434 337.652 590.694 344.253C590.029 347.089 589.517 349.958 589.162 352.849C587.214 369.245 583.425 445.588 581.607 456.371C557.708 457.251 514.363 458.844 485.391 459.843C471.338 459.843 461.479 459.843 461.479 459.843C461.479 459.843 461.301 452.852 460.885 442.829C468.986 442.318 479.772 441.545 480.568 440.772Z" fill="#2F832C"/>
<path d="M496.236 309.441C504.551 308.442 517.95 301.214 523.224 303.698C528.498 306.183 529.746 312.544 530.826 313.638C531.907 314.732 536.564 309.287 536.564 295.935C536.564 282.583 536.968 268.91 527.156 267.055C517.344 265.2 491.9 274.819 486.769 278.707C482.755 281.588 479.724 285.635 478.086 290.299C476.684 294.068 472.966 309.322 474.665 309.441C476.363 309.56 481.186 299.656 484.749 299.347C488.313 299.038 493.979 309.715 496.236 309.441Z" fill="#349531"/>
<path d="M491.496 297.492C489.382 292.439 487.054 287.98 487.125 284.52C487.196 281.06 487.98 278.576 491.877 277.541C495.773 276.507 497.388 278.552 497.626 283.831C497.863 289.11 491.496 297.492 491.496 297.492Z" fill="#2F832C"/>
<path d="M521.906 288.087C530.007 280.728 530.933 272.488 530.221 270.788C529.508 269.088 526.111 267.839 526.111 267.839C526.111 267.839 524.792 273.19 525.564 274.509C526.336 275.829 521.906 288.087 521.906 288.087Z" fill="#2F832C"/>
<path d="M509.006 305.874C510.988 304.994 513.038 304.275 515.135 303.722C517.26 303.13 519.464 302.869 521.668 302.949C522.856 302.974 524.007 303.36 524.97 304.055C525.85 304.887 526.515 305.636 527.263 306.433C528.654 308.145 529.809 310.037 530.696 312.057C530.842 312.441 531.073 312.786 531.373 313.067C531.373 313.067 531.373 313.067 531.551 312.996C531.722 312.867 531.874 312.715 532.003 312.544C532.611 311.699 533.14 310.8 533.583 309.857C534.505 307.958 535.149 305.936 535.495 303.853C535.892 301.739 536.157 299.603 536.291 297.456C536.469 295.304 536.528 293.152 536.564 290.988C537.019 295.315 536.964 299.681 536.398 303.995C536.139 306.199 535.529 308.346 534.592 310.356C534.128 311.381 533.563 312.357 532.905 313.269C532.706 313.528 532.475 313.76 532.216 313.959C532.046 314.083 531.852 314.172 531.646 314.22C531.391 314.277 531.123 314.248 530.886 314.137C530.547 313.96 530.263 313.693 530.066 313.364C529.909 313.12 529.766 312.866 529.639 312.604C528.801 310.65 527.711 308.815 526.396 307.146C525.743 306.35 524.982 305.482 524.305 304.768C523.511 304.183 522.568 303.833 521.585 303.758C519.468 303.591 517.339 303.739 515.266 304.198C513.146 304.627 511.056 305.187 509.006 305.874Z" fill="#2F832C"/>
<path d="M489.905 303.092C489.032 302.283 488.108 301.533 487.137 300.845C486.672 300.507 486.175 300.216 485.652 299.977C485.416 299.88 485.169 299.812 484.916 299.775C484.821 299.762 484.725 299.762 484.631 299.775C484.532 299.805 484.439 299.854 484.357 299.918C482.405 301.175 480.741 302.832 479.475 304.78C478.81 305.719 478.216 306.789 477.432 307.764C477.03 308.266 476.576 308.725 476.078 309.132C475.77 309.382 475.401 309.547 475.009 309.607C474.87 309.621 474.73 309.606 474.597 309.563C474.464 309.52 474.341 309.45 474.237 309.358C474.066 309.203 473.939 309.007 473.869 308.787C473.707 308.142 473.679 307.47 473.786 306.813C473.856 306.209 473.963 305.609 474.106 305.018C474.388 303.846 474.737 302.69 475.152 301.558C474.985 302.747 474.771 303.936 474.676 305.125C474.617 305.708 474.569 306.314 474.558 306.885C474.526 307.418 474.586 307.953 474.736 308.466C474.758 308.532 474.799 308.59 474.855 308.632C474.855 308.632 474.855 308.632 474.914 308.632C475.108 308.574 475.287 308.472 475.437 308.335C475.841 307.975 476.211 307.576 476.541 307.146C477.242 306.243 477.8 305.196 478.501 304.174C479.204 303.163 480 302.22 480.877 301.356C481.776 300.502 482.787 299.774 483.882 299.192C484.054 299.098 484.238 299.026 484.429 298.978C484.63 298.949 484.834 298.949 485.035 298.978C485.371 299.05 485.695 299.17 485.997 299.335C486.531 299.653 487.032 300.023 487.493 300.441C488.378 301.247 489.185 302.135 489.905 303.092Z" fill="#2F832C"/>
<path d="M490.356 267.162C490.356 270.443 490.511 273.713 490.855 276.983C491.687 284.984 490.855 295.542 491.497 297.492C492.209 299.656 496.39 307.42 496.39 307.42C496.39 307.42 503.838 304.007 506.939 300.286C510.039 296.565 514.066 296.362 519.506 290.869C524.947 285.377 528.57 276.65 527.382 269.397C527.227 268.47 526.265 259.172 526.063 249.542C525.861 239.911 515.741 232.611 506.131 232.611C496.521 232.611 490.76 246.878 490.451 256.521C490.368 260.456 490.344 264.166 490.356 267.162Z" fill="#F6A397"/>
<path d="M526.099 249.53C526.301 259.16 527.287 268.458 527.418 269.385C527.77 271.721 527.702 274.1 527.216 276.412C525.089 276.804 497.709 277.458 490.606 274.153C490.451 271.775 490.38 269.492 490.356 267.162C490.356 264.166 490.356 260.456 490.487 256.461C490.706 251.86 491.795 247.341 493.694 243.145L516.263 235.155C521.751 238.163 525.956 243.371 526.099 249.53Z" fill="#D65863"/>
<path d="M473.489 209.462C458.937 209.462 453.497 220.638 453.497 229.032C453.497 236.558 455.873 248.602 473.489 248.602C482.291 248.602 488.242 239.84 488.242 229.032C488.242 218.224 482.243 209.462 473.489 209.462Z" fill="#648381"/>
<path d="M472.847 214.253C461.859 214.253 457.749 222.695 457.749 229.032C457.749 234.715 459.567 243.811 472.847 243.811C479.487 243.811 483.989 237.188 483.989 229.032C483.989 220.876 479.487 214.253 472.847 214.253Z" fill="#575761"/>
<path d="M455.136 216.06C455.991 221.161 458.522 223.111 459.638 229.995C460.755 236.879 457.761 246.878 462.251 255.581C466.742 264.284 473.976 275.793 478.169 276.221C482.362 276.649 515.907 271.026 527.227 248.507C530.47 242.039 537.419 216.679 531.468 201.187C525.517 185.695 515.871 171.522 493.528 171.094C471.184 170.666 450.575 189.012 455.136 216.06Z" fill="#F6A397"/>
<path d="M473.821 243.953C474.391 243.993 474.963 243.907 475.497 243.701C476.03 243.496 476.513 243.176 476.91 242.764C477.158 242.426 477.337 242.041 477.437 241.633C477.537 241.225 477.555 240.801 477.492 240.386C476.644 241.04 475.662 241.497 474.616 241.723C473.57 241.95 472.487 241.94 471.445 241.694C471.184 243.24 472.42 243.93 473.821 243.953Z" fill="#D65863"/>
<path d="M513.329 216.06C512.798 212.885 511.256 209.966 508.934 207.738C508.934 207.738 500.405 204.171 493.801 203.541C489.282 203.033 484.81 202.17 480.426 200.961C480.426 200.961 482.516 206.275 486.068 208.534C486.068 208.534 470.281 207.738 465.28 203.065C465.28 203.065 466.254 206.917 467.217 209.509C467.217 209.509 459.484 208.701 457.072 205.645C457.072 205.645 455.136 212.387 455.136 216.108C455.136 216.108 445.847 203.386 448.211 193.28C450.575 183.174 453.794 179.31 453.794 179.31C450.366 179.655 446.911 179.655 443.483 179.31C443.483 179.31 452.071 171.784 458.521 166.838C464.972 161.892 484.286 161.678 484.286 161.678C484.286 161.678 482.789 156.518 484.512 148.35C484.512 148.35 492.827 160.489 501.534 164.198C510.241 167.908 509.101 167.599 518.378 169.941C527.655 172.283 536.481 178.264 540.187 183.233C543.893 188.203 547.92 193.387 550.343 194.196C550.343 194.196 544.546 193.387 541.636 190.974C541.636 190.974 546.471 201.959 540.08 216.108C533.689 230.257 517.677 226.071 514.577 222.944C513.687 222.065 513.089 220.932 512.866 219.7C512.643 218.468 512.805 217.197 513.329 216.06Z" fill="#575761"/>
<path d="M514.577 222.897C513.697 222.021 513.105 220.896 512.883 219.674C512.66 218.452 512.816 217.191 513.329 216.061C512.907 213.506 511.835 211.102 510.217 209.081C512.541 194.915 511.599 180.405 507.461 166.66C509.841 167.632 512.296 168.407 514.802 168.978C519.043 175.49 522.308 182.588 524.495 190.046C527.31 199.415 528.665 209.533 526.051 218.95C525.367 221.384 524.394 223.727 523.153 225.929C519.185 225.596 515.824 224.217 514.577 222.897Z" fill="#8ACB88"/>
<path d="M518.948 210.805C518.948 210.805 520.053 175.446 501.534 164.151C506.117 163.911 510.673 164.982 514.67 167.239C518.667 169.496 521.939 172.846 524.103 176.896C532.323 191.247 531.765 203.553 531.563 210.449C531.361 217.344 518.948 210.805 518.948 210.805Z" fill="#648381"/>
<path d="M524.602 209.462C539.154 209.462 544.594 220.638 544.594 229.032C544.594 236.558 542.218 248.602 524.602 248.602C515.8 248.602 509.849 239.84 509.849 229.032C509.849 218.224 515.8 209.462 524.602 209.462Z" fill="#648381"/>
<path d="M516.75 229.032C516.75 219.437 523.082 211.649 530.886 211.649C538.69 211.649 544.594 219.437 544.594 229.032C544.594 238.627 538.655 246.402 530.886 246.402C523.117 246.402 516.75 238.627 516.75 229.032Z" fill="#575761"/>
<path d="M532.751 240.862C538.065 240.862 542.373 235.566 542.373 229.032C542.373 222.499 538.065 217.202 532.751 217.202C527.437 217.202 523.129 222.499 523.129 229.032C523.129 235.566 527.437 240.862 532.751 240.862Z" fill="#FFBF46"/>
<path d="M487.719 248.602C483.787 250.766 470.935 251.491 470.068 251.372C469.2 251.253 470.982 261.015 474.13 261.371C477.278 261.728 483.573 260.896 486.187 258.363C488.8 255.831 487.719 248.602 487.719 248.602Z" fill="#D65863"/>
<path d="M486.899 251.444C486.65 250.576 486.46 249.886 486.282 249.208C481.958 250.683 473.441 251.313 470.84 251.373C471.061 252.719 471.435 254.036 471.956 255.297C472.039 255.297 471.956 255.427 472.016 255.368C474.633 255.78 477.307 255.644 479.869 254.969C482.431 254.293 484.825 253.093 486.899 251.444Z" fill="white"/>
<path d="M485.985 225.263C485.985 223.48 486.864 222.041 487.945 222.041C489.026 222.041 489.905 223.48 489.905 225.263C489.905 227.047 489.026 228.498 487.945 228.498C486.864 228.498 485.985 227.047 485.985 225.263Z" fill="#575761"/>
<path d="M463.558 226.773C463.558 224.99 464.306 223.551 465.245 223.551C466.183 223.551 466.932 224.99 466.932 226.773C466.932 228.557 466.171 229.996 465.245 229.996C464.318 229.996 463.558 228.557 463.558 226.773Z" fill="#575761"/>
<path d="M496.961 212.696C495.605 211.983 494.175 211.42 492.696 211.019C491.194 210.621 489.652 210.39 488.099 210.33C486.501 210.15 484.882 210.308 483.348 210.794C481.843 211.331 480.515 212.273 479.511 213.517L479.618 213.707C481.245 213.528 482.576 213.136 483.989 212.946C485.403 212.756 486.71 212.232 488.147 212.125C491.076 211.863 494.028 212.124 496.866 212.898L496.961 212.696Z" fill="#575761"/>
<path d="M457.892 216.857C458.588 216.594 459.314 216.418 460.054 216.334C460.779 216.245 461.509 216.198 462.239 216.191C462.955 216.296 463.68 216.324 464.401 216.275C464.774 216.203 465.14 216.1 465.494 215.966C465.915 215.828 466.315 215.632 466.682 215.383V215.157C466.051 214.551 465.244 214.16 464.378 214.039C463.567 213.987 462.755 214.117 462.002 214.42C461.213 214.622 460.448 214.909 459.721 215.276C458.995 215.637 458.333 216.115 457.761 216.691L457.892 216.857Z" fill="#575761"/>
<path d="M480.568 448.429C480.568 448.929 479.879 449.618 478.192 449.618H424.371C418.17 449.618 416.721 447.157 418.586 444.054C420.451 440.951 428.302 434.114 447.748 429.359C467.193 424.603 477.444 435.731 480.568 440.737C482.885 444.458 480.568 448.429 480.568 448.429Z" fill="#648381"/>
<path d="M418.099 445.017C419.168 448.584 460.22 446.729 460.22 446.729C460.22 446.729 456.063 441.094 451.454 440.939C446.845 440.784 444.624 442.378 438.387 443.436C432.151 444.494 436.796 440.927 436.796 440.927C436.796 440.927 432.436 439.964 430.654 438.549C430.654 438.549 440.822 435.541 445.087 434.84C449.351 434.138 460.208 434.614 461.61 434.84C462.596 435.006 467.609 432.093 473.655 433.556C476.346 435.499 478.66 437.916 480.485 440.689C482.861 444.375 480.485 448.346 480.485 448.346C480.485 448.846 479.796 449.535 478.109 449.535H424.37C418.811 449.654 417.077 447.669 418.099 445.017Z" fill="#575761"/>
<path d="M593.688 414.758C593.688 414.758 555.439 420.703 534.699 424.4C515.064 427.967 498.101 429.442 493.29 428.514C488.479 427.587 472.039 421.583 466.801 419.347C461.562 417.112 450.991 415.935 445.562 417.647C440.133 419.359 435.679 421.214 433.505 421.214C431.331 421.214 431.747 424.781 434.693 425.459C436.488 425.899 438.333 426.106 440.181 426.077C440.181 426.077 430.357 431.463 428.599 432.022C426.841 432.58 428.92 435.755 431.296 435.589C431.296 435.589 429.217 436.837 429.942 438.073C430.666 439.31 435.881 439.262 435.881 439.262C435.881 439.262 429.573 442.366 434.847 443.602C440.122 444.839 446.429 438.953 449.007 438.43C451.584 437.907 457.595 438.228 460.493 440.404C463.392 442.58 475.793 452.614 492.756 446.61C492.756 446.61 607.848 451.271 619.322 451.271C630.797 451.271 637.734 441.117 634.052 421.547C631.843 409.769 628.213 398.303 623.242 387.4L583.532 390.194L593.688 414.758Z" fill="#F6A397"/>
<path d="M449.149 422.974C449.93 422.779 450.724 422.64 451.525 422.558L449.149 422.974Z" fill="#D65863"/>
<path d="M440.098 426.077C438.249 426.107 436.405 425.899 434.61 425.459C433.882 425.276 433.235 424.858 432.769 424.27C435.988 425.697 439.896 424.793 442.117 424.27C443.495 423.949 446.869 423.331 449.149 422.926C446.043 423.701 443.013 424.755 440.098 426.077Z" fill="#D65863"/>
<path d="M440.597 430.726C440.781 430.641 440.97 430.565 441.162 430.5L440.597 430.726Z" fill="#D65863"/>
<path d="M428.528 434.281C428.528 434.281 429.716 435.316 432.092 434.281C434.087 433.413 438.91 431.427 440.597 430.714C438.482 431.677 432.745 434.923 431.213 435.47C430.704 435.493 430.197 435.397 429.731 435.191C429.265 434.984 428.854 434.673 428.528 434.281Z" fill="#D65863"/>
<path d="M434.467 438.086C436.225 437.575 439.896 435.339 442.153 434.281C443.778 433.592 445.51 433.19 447.272 433.092C446.182 433.33 445.133 433.731 444.16 434.281C441.915 435.387 435.75 439.227 435.75 439.227C434.058 439.239 432.372 439.023 430.737 438.585C431.997 438.577 433.25 438.409 434.467 438.086Z" fill="#D65863"/>
<path d="M467.193 440.606C470.459 442.627 480.069 445.267 485.807 444.173C487.405 443.922 488.903 443.235 490.136 442.186C491.368 441.136 492.287 439.767 492.791 438.228L494.395 443.412C494.395 443.412 574.219 445.683 590.445 444.957C606.671 444.232 631.533 443.864 634.8 434.257C633.897 445.457 627.839 451.211 619.192 451.211C607.717 451.211 492.625 446.551 492.625 446.551C475.662 452.555 463.249 442.508 460.363 440.344C457.987 438.537 453.402 437.966 450.456 438.192C454.922 436.67 463.938 438.608 467.193 440.606Z" fill="#D65863"/>
<path d="M593.688 414.758C593.688 414.758 608.643 412.725 611.649 412.38L609.344 403.106L590.421 406.935L593.688 414.758Z" fill="#D65863"/>
<path d="M633.66 388.685C633.939 389.396 634.002 390.175 633.839 390.922C633.676 391.669 633.296 392.351 632.745 392.882C625.796 399.67 616.673 408.92 607.289 410.347C597.05 411.905 579.968 412.523 579.066 410.347C578.163 408.171 574.718 380.54 568.517 366.57C562.317 352.6 558.266 345.49 556.722 337.381C555.178 329.273 569.135 310.368 575.336 308.846C581.536 307.325 595.815 306.362 601.706 311.64C607.598 316.919 611.946 337.096 618.764 352.314C624.276 364.513 631.189 382.347 633.66 388.685Z" fill="#349531"/>
<path d="M595.268 308.549C593.368 308.335 591.467 308.169 589.567 308.133C587.671 308.038 585.772 308.038 583.877 308.133C581.993 308.239 580.117 308.453 578.258 308.775C577.332 308.918 576.417 309.144 575.502 309.346C574.629 309.597 573.785 309.939 572.984 310.368C572.155 310.797 571.36 311.289 570.608 311.842C569.919 312.461 569.171 313.031 568.541 313.709C567.211 315.039 565.98 316.466 564.859 317.977C563.671 319.499 562.697 321.092 561.711 322.733C560.725 324.374 559.811 326.039 558.932 327.739C560.236 324.117 561.975 320.668 564.111 317.466C565.18 315.846 566.392 314.326 567.734 312.924C568.42 312.226 569.141 311.563 569.896 310.939C570.679 310.333 571.514 309.796 572.39 309.334C573.273 308.865 574.206 308.494 575.17 308.228C576.12 308.026 577.07 307.8 578.032 307.681C579.943 307.386 581.873 307.239 583.805 307.241C587.665 307.206 591.515 307.646 595.268 308.549Z" fill="#2F832C"/>
<path d="M625.974 394.415C625.974 389.445 615.462 343.968 606.208 318.62C610.14 327.287 613.822 341.115 618.823 352.291C624.335 364.561 631.249 382.3 633.719 388.685C633.999 389.396 634.061 390.175 633.898 390.922C633.736 391.669 633.355 392.351 632.805 392.882C630.144 395.485 627.162 398.446 623.967 401.204C624.157 400.955 625.974 398.993 625.974 394.415Z" fill="#2F832C"/>
<path d="M385.183 440.392H270.637C270.362 440.391 270.09 440.444 269.836 440.548C269.581 440.653 269.35 440.807 269.156 441.001C268.961 441.196 268.807 441.427 268.703 441.682C268.598 441.937 268.545 442.209 268.547 442.485V447.561C268.547 448.116 268.767 448.649 269.159 449.041C269.551 449.434 270.083 449.654 270.637 449.654H385.183V440.392Z" fill="#7F7F8C"/>
<path d="M414.654 446.777V448.845C414.654 449.06 414.569 449.265 414.417 449.417C414.266 449.569 414.06 449.654 413.846 449.654H384.993C384.562 449.651 384.15 449.478 383.846 449.173C383.541 448.869 383.369 448.456 383.366 448.025V442.009C383.366 441.779 383.414 441.552 383.509 441.342C383.603 441.132 383.74 440.945 383.912 440.792C384.083 440.64 384.286 440.525 384.505 440.456C384.724 440.387 384.955 440.365 385.183 440.392L413.941 445.98C414.137 446.001 414.319 446.094 414.451 446.241C414.582 446.388 414.655 446.579 414.654 446.777Z" fill="#575761"/>
<path d="M184.993 245.523H399.093C401.207 245.524 403.27 246.178 405 247.395C406.731 248.612 408.044 250.333 408.762 252.324L455.564 382.466C457.524 389.172 452.618 394.201 444.73 395.057C443.543 395.188 437.769 392.596 428.742 388.352H237.354C235.239 388.35 233.176 387.697 231.446 386.48C229.716 385.263 228.402 383.542 227.684 381.551L185.397 263.987L174.171 258.114C174.171 258.114 171.522 245.523 184.993 245.523Z" fill="#575761"/>
<path d="M392.381 252.229H178.293C177.589 252.228 176.894 252.398 176.269 252.723C175.644 253.049 175.106 253.52 174.702 254.097C174.297 254.675 174.038 255.341 173.946 256.041C173.853 256.74 173.931 257.451 174.171 258.114L220.985 388.292C221.703 390.283 223.016 392.004 224.746 393.221C226.477 394.438 228.539 395.091 230.654 395.093H444.73C445.435 395.092 446.129 394.922 446.755 394.597C447.38 394.272 447.918 393.801 448.323 393.224C448.728 392.647 448.989 391.981 449.083 391.282C449.177 390.583 449.102 389.871 448.864 389.208L402.039 259.029C401.324 257.038 400.014 255.317 398.285 254.1C396.557 252.882 394.495 252.229 392.381 252.229Z" fill="#7F7F8C"/>
<path d="M344.047 395.057L334.545 359.769L298.528 395.057H344.047Z" fill="#393943"/>
<path d="M291.924 297.932C292.862 303.758 296.676 306.1 301.13 306.1C302.169 306.145 303.206 305.956 304.162 305.545C305.118 305.135 305.97 304.515 306.655 303.731C307.339 302.946 307.839 302.018 308.116 301.014C308.393 300.01 308.442 298.957 308.257 297.932C307.883 295.725 306.765 293.713 305.091 292.229C303.416 290.746 301.285 289.88 299.051 289.776C298.014 289.736 296.981 289.928 296.028 290.339C295.075 290.75 294.226 291.369 293.542 292.151C292.859 292.933 292.359 293.858 292.079 294.858C291.799 295.858 291.746 296.909 291.924 297.932Z" fill="#575761"/>
<path d="M392.536 373.395L389.78 365.75H393.248L395.992 373.395H392.536Z" fill="#575761"/>
<path d="M385.254 373.395L382.498 365.75H385.955L388.711 373.395H385.254Z" fill="#575761"/>
<path d="M377.961 373.395L375.205 365.75H378.673L381.429 373.395H377.961Z" fill="#575761"/>
<path d="M370.679 373.395L367.923 365.75H371.38L374.136 373.395H370.679Z" fill="#575761"/>
<path d="M267.169 373.395L264.413 365.75H267.882L270.626 373.395H267.169Z" fill="#575761"/>
<path d="M259.887 373.395L257.132 365.75H260.588L263.344 373.395H259.887Z" fill="#575761"/>
<path d="M252.594 373.395L249.85 365.75H253.307L256.063 373.395H252.594Z" fill="#575761"/>
<path d="M245.312 373.395L242.556 365.75H246.013L248.769 373.395H245.312Z" fill="#575761"/>
<path d="M271.754 437.039C273.869 430.952 299.491 348.212 299.491 348.212H332.371L334.545 359.745C334.545 359.745 312.498 430.952 310.383 437.027C310.217 437.491 310.075 437.954 309.92 438.418C307.984 444.363 313.08 444.363 318.829 444.363H376.82V449.63H280.212C268.583 449.654 269.616 443.15 271.754 437.039Z" fill="#575761"/>
<path d="M332.37 348.248C332.37 348.248 306.76 430.987 304.646 437.039C302.531 443.091 301.474 449.618 313.092 449.618H274.462C262.845 449.618 263.902 443.114 266.017 437.039C268.131 430.963 293.741 348.212 293.741 348.212L332.37 348.248Z" fill="#575761"/>
<path d="M324.317 348.248C321.775 348.13 319.221 348.082 316.679 347.999C314.137 347.915 311.583 347.892 309.029 347.832C306.475 347.773 303.933 347.713 301.391 347.713H293.741H293.373L293.231 348.13C292.173 351.459 291.116 354.8 290.118 358.152L287.066 368.187C285.106 374.905 283.146 381.622 281.352 388.399C283.728 381.801 285.89 375.154 288.075 368.508L291.247 358.497C292.316 355.168 293.349 351.827 294.347 348.474L293.789 348.89H301.439C303.981 348.89 306.535 348.807 309.077 348.772C311.619 348.736 314.173 348.7 316.726 348.605C319.28 348.51 321.775 348.367 324.317 348.248Z" fill="#403D50"/>
<path d="M100.286 470.269H667.3C668.633 470.27 669.954 470.009 671.186 469.499C672.418 468.99 673.538 468.242 674.481 467.299C675.424 466.356 676.173 465.236 676.683 464.003C677.194 462.771 677.456 461.449 677.456 460.115C677.456 458.781 677.194 457.459 676.683 456.227C676.173 454.994 675.424 453.874 674.481 452.931C673.538 451.988 672.418 451.241 671.186 450.731C669.954 450.221 668.633 449.96 667.3 449.961H100.286C97.5959 449.961 95.0157 451.031 93.1133 452.935C91.2108 454.84 90.1421 457.422 90.1421 460.115C90.1421 462.808 91.2108 465.391 93.1133 467.295C95.0157 469.199 97.5959 470.269 100.286 470.269Z" fill="#648381"/>
<path d="M100.286 469.961H667.3C668.633 469.963 669.954 469.701 671.186 469.192C672.418 468.682 673.538 467.934 674.481 466.991C675.424 466.048 676.173 464.929 676.683 463.696C677.194 462.463 677.456 461.142 677.456 459.808H90.1421C90.1421 462.501 91.2108 465.083 93.1133 466.987C95.0157 468.891 97.5959 469.961 100.286 469.961Z" fill="#575761"/>
<path d="M254.756 196.36C256.383 204.516 248.817 211.816 246.441 213.112C244.065 214.408 228.243 220.817 218.728 221.042C209.213 221.268 196.646 201.116 201.789 198.845C206.933 196.574 241.951 194.089 245.74 194.089C249.529 194.089 254.756 196.36 254.756 196.36Z" fill="#FFC5C7"/>
<path d="M229.799 192.115C225.653 216.572 215.782 235.583 212.705 235.928C209.629 236.272 180.051 226.083 171.902 222.338C163.754 218.593 174.409 161.214 179.481 162.225C184.553 163.235 195.672 174.269 204.866 179.548C214.06 184.827 229.799 192.115 229.799 192.115Z" fill="#648381"/>
<path d="M181.097 202.221C183.947 207.12 207.443 219.52 220.391 224.038C217.184 231.267 214.178 235.702 212.706 235.928C210.068 236.213 188.01 228.794 176.606 224.3C177.629 216.852 179.128 209.477 181.097 202.221Z" fill="#2A5629"/>
<path d="M254.791 195.23C255.029 204.932 246.298 206.323 235.786 203.826C225.273 201.33 208.334 177.848 200.72 167.147C193.106 156.447 178.958 137.542 176.024 135.842C173.09 134.142 166.379 133.238 160.582 123.679C154.785 114.12 162.388 94.0741 165.108 91.6962C167.828 89.3183 191.11 97.2486 193.818 101.208C196.527 105.167 191.906 126.782 192.726 129.505C193.545 132.228 213.359 154.402 222.018 159.835C230.678 165.269 254.625 188.203 254.791 195.23Z" fill="#FFC5C7"/>
<path d="M177.093 107.7C174.361 106.345 173.696 100.173 175.418 101.256C177.141 102.338 180.17 102.326 184.232 102.266C186.172 102.295 188.111 102.164 190.029 101.874C190.272 103.484 190.403 105.109 190.421 106.737C190.421 106.737 179.837 109.068 177.093 107.7Z" fill="#FE8A8B"/>
<path d="M158.967 109.114C160.618 106.023 161.901 103.681 161.901 103.681L177.925 119.137C181.022 116.52 184.275 114.094 187.665 111.873L189.067 114.381C186.466 118.745 184.221 128.03 184.173 130.289C184.173 130.289 181.714 133 180.336 133.226C180.336 133.226 197.477 160.394 208.489 173.757C219.5 187.121 226.948 198.523 232.115 202.209C221.698 196.205 207.479 176.659 200.72 167.147C193.13 156.506 178.958 137.542 176.024 135.842C173.09 134.142 166.379 133.238 160.582 123.679C158.361 119.886 158.183 114.453 158.967 109.114Z" fill="#FE8A8B"/>
<path d="M192.31 110.66C192.108 112.253 176.191 126.116 174.492 127.65C173.942 127.863 173.332 127.863 172.782 127.65C168.541 123.917 150.058 90.3169 149.725 89.1041C149.392 87.8914 161.687 76.418 165.441 73.3267C165.926 73.1502 166.447 73.0895 166.96 73.1493C167.474 73.2092 167.966 73.388 168.398 73.6715C172.211 79.2834 192.559 108.615 192.31 110.66Z" fill="#575761"/>
<path d="M190.588 110.66C190.397 112.253 174.48 126.116 172.77 127.65C171.059 129.184 148.454 90.4239 148.05 89.1042C147.741 87.9152 161.402 76.6083 165.155 73.517C165.264 73.4146 165.393 73.3366 165.535 73.2884C165.676 73.2402 165.826 73.2228 165.975 73.2375C166.123 73.2521 166.267 73.2984 166.396 73.3733C166.525 73.4482 166.637 73.5499 166.723 73.6716C170.501 79.2834 190.849 108.615 190.588 110.66Z" fill="#648381"/>
<path d="M187.915 108.389C187.737 109.875 172.841 122.799 171.285 124.285C169.729 125.771 148.454 89.4487 148.121 88.224C147.789 86.9994 160.606 76.5366 164.11 73.6356C164.214 73.5422 164.336 73.4717 164.469 73.4286C164.602 73.3855 164.742 73.3708 164.881 73.3853C165.02 73.3999 165.154 73.4435 165.275 73.5132C165.396 73.5829 165.501 73.6773 165.583 73.7901C169.123 79.0334 188.152 106.51 187.915 108.389Z" fill="#FFD17B"/>
<path d="M178.364 89.4608C175.906 87.9746 172.876 82.9334 172.603 81.2332C172.33 79.533 172.496 78.0112 173.791 77.6664C175.086 77.3216 179.196 82.6481 181.227 84.2294C183.258 85.8107 185.741 89.1041 184.731 91.3037C183.722 93.5032 179.196 92.671 178.721 92.3262C178.246 91.9814 178.364 89.4608 178.364 89.4608Z" fill="#FFC5C7"/>
<path d="M173.055 78.1182C172.283 80.0443 177.367 87.7962 181.833 90.0077L180.182 91.91L178.459 91.5177C178.371 90.8319 178.339 90.1399 178.364 89.4489C175.905 87.9627 172.876 82.9215 172.603 81.2213C172.452 80.702 172.413 80.156 172.491 79.6205C172.569 79.0851 172.761 78.5727 173.055 78.1182Z" fill="#FE8A8B"/>
<path d="M184.09 97.2848C179.849 95.0137 176.523 95.2753 174.207 94.3359C171.89 93.3965 171.487 89.8412 173.019 89.2466C174.551 88.6521 184.149 90.1741 186.608 91.28C189.067 92.3858 190.255 97.4632 190.255 97.4632L184.09 97.2848Z" fill="#FFC5C7"/>
<path d="M182.237 94.6216C184.613 95.0853 185.468 94.6216 185.468 94.6216C185.397 95.5609 186.276 96.0366 187.273 97.3683L184.09 97.2851C179.849 95.014 176.523 95.2756 174.207 94.3362C173.722 94.1154 173.294 93.7862 172.957 93.3739C172.619 92.9616 172.38 92.4772 172.259 91.958C173.304 93.9081 179.849 94.1935 182.237 94.6216Z" fill="#FE8A8B"/>
<path d="M193.878 101.28C191.609 104.407 180.514 103.052 178.281 102.719C176.048 102.386 174.635 100.959 174.86 99.532C175.323 96.6544 189.994 97.1539 191.205 97.6176C192.417 98.0813 193.878 101.28 193.878 101.28Z" fill="#FFC5C7"/>
<path d="M174.943 100.221C176.464 101.731 180.111 102.599 184.09 102.92C186.044 103.111 188.01 103.143 189.97 103.015C186.077 103.415 182.149 103.315 178.281 102.718C177.539 102.686 176.823 102.431 176.227 101.985C175.632 101.54 175.184 100.925 174.943 100.221Z" fill="#FE8A8B"/>
<path d="M141.945 145.187C165.5 157.195 169.361 156.731 179.481 162.165C189.602 167.598 186.608 224.882 185.943 233.716C185.278 242.55 182.867 277.636 184.209 287.148C185.551 296.659 190.79 331.971 193.106 337.405C195.422 342.838 199.853 352.017 193.011 357.45C186.169 362.884 171.689 366.617 140.258 364.584C108.827 362.551 74.9256 343.183 73.4526 340.472C71.9797 337.761 88.4791 287.825 89.168 278.314C89.7684 271.208 90.9604 264.165 92.7316 257.257C93.7413 252.846 83.7395 232.135 82.1359 218.89C80.5323 205.645 66.171 169.108 68.8675 162.391C71.5639 155.673 96.6634 148.266 113.709 139.801C130.755 131.335 141.945 145.187 141.945 145.187Z" fill="#648381"/>
<path d="M165.298 160.013C161.356 172.86 153.579 184.191 143.014 192.483C130.256 189.368 117.285 183.792 106.879 175.779C118.494 184.486 131.294 191.485 144.89 196.562C156.168 187.486 163.485 174.383 165.298 160.013Z" fill="#E4FDE1"/>
<path d="M160.487 153.973C155.961 152.035 150.153 149.372 141.945 145.187C141.945 145.187 130.755 131.24 113.709 139.753C107.77 142.702 100.916 145.531 94.347 148.242C104.637 165.695 120.805 178.906 139.949 185.504C149.985 177.46 157.182 166.41 160.487 153.973Z" fill="#FFC5C7"/>
<path d="M73.4526 340.201C71.9559 337.49 88.479 287.566 89.168 278.054C89.7684 270.948 90.9604 263.905 92.7316 256.998C93.7412 252.587 83.7395 231.875 82.1359 218.631C81.7115 215.678 81.1005 212.755 80.3065 209.88L90.926 201.961C97.1504 219.356 101.035 249.924 106.938 257.39C112.842 264.857 127.548 267.948 127.548 267.948C127.548 267.948 113.02 271.349 106.689 269.993C106.689 269.993 99.93 296.816 99.8469 310.061C99.7637 323.306 101.035 343.351 101.153 346.062C101.153 347.073 100.999 350.616 100.69 354.646C85.4975 348.583 74.296 341.734 73.4526 340.201Z" fill="#2A5629"/>
<path d="M116.382 115.63C116.144 129.802 115.194 139.528 112.07 142.251C112.07 142.251 117.463 165.768 139.011 163.759C146.292 163.081 145.603 150.847 141.945 145.187L144.106 127.805L116.382 115.63Z" fill="#FFC5C7"/>
<path d="M113.709 139.801C115.55 135.402 116.192 126.937 116.382 115.63L144.107 127.805L142.717 138.957C137.763 141.169 113.709 139.801 113.709 139.801Z" fill="#FE8A8B"/>
<path d="M40.038 230.245C35.2866 236.808 28.8721 253.108 31.2716 260.575C33.6711 268.041 58.3905 301.332 69.6989 313.78C81.0074 326.229 83.5731 328.274 85.4975 332.411C87.4218 336.549 97.1029 353.289 99.6212 355.845C102.139 358.402 106.748 358.723 106.748 358.723C108.07 359.943 109.648 360.851 111.367 361.38C113.085 361.909 114.901 362.045 116.679 361.778C116.679 361.778 122.357 365.69 126.859 366.713C126.859 366.713 128.356 369.59 129.864 369.851C131.373 370.113 133.285 367.045 130.506 360.934C127.726 354.823 123.165 352.279 122.428 348.367C121.692 344.455 118.164 336.477 118.164 336.477C118.164 336.477 126.099 344.61 130.981 345.121C135.863 345.632 136.516 342.743 133.832 340.365C130.317 337.223 127.172 333.688 124.459 329.831C122.975 327.512 120.999 325.55 118.671 324.082C116.342 322.615 113.72 321.679 110.989 321.342C104.776 320.498 100.417 319.82 98.8015 318.631C97.186 317.442 89.0611 305.862 83.5256 293.402C77.9902 280.942 73.0012 265.045 58.8775 251.075L65.1019 240.196L40.038 230.245Z" fill="#FFC5C7"/>
<path d="M126.669 365.869C125.358 362.5 123.364 359.439 120.813 356.88L119.85 355.929C119.565 355.632 119.066 355.251 118.96 355.085C118.473 354.467 118.045 353.646 117.582 352.909C116.691 351.375 115.812 349.818 114.826 348.32C115.309 350.065 115.916 351.774 116.643 353.432C116.984 354.291 117.406 355.115 117.902 355.893C118.211 356.257 118.544 356.598 118.9 356.916L119.803 357.855C120.991 359.104 122.179 360.423 123.366 361.731C124.554 363.039 125.588 364.442 126.669 365.869Z" fill="#FE8A8B"/>
<path d="M116.382 360.554C115.455 358.723 114.339 357.142 113.353 355.465C112.367 353.789 111.393 352.172 110.454 350.365C110.461 352.437 111.072 354.462 112.212 356.191C113.256 357.941 114.681 359.433 116.382 360.554Z" fill="#FE8A8B"/>
<path d="M111.464 361.279C109.688 360.816 108.054 359.917 106.713 358.663C106.713 358.663 102.151 358.331 99.5855 355.786C97.4899 353.12 95.5998 350.298 93.9313 347.345C93.9313 347.404 96.8297 350.495 98.8728 353.052C99.6949 354.073 100.791 354.839 102.032 355.26C103.273 355.681 104.608 355.74 105.881 355.43L105.335 352.124C105.335 352.124 108.162 359.662 111.464 361.279Z" fill="#FE8A8B"/>
<path d="M31.1647 252.276C31.3072 255.379 31.3429 257.84 35.9161 265.973C41.0833 275.116 72.1459 313.685 78.9286 320.819C85.7113 327.953 85.4975 328.404 89.5124 339.664C87.695 336.489 86.1864 333.719 85.5331 332.352C83.5612 328.274 80.9955 326.241 69.687 313.78C58.3786 301.32 33.6592 268.053 31.2597 260.575C30.6046 257.851 30.5722 255.014 31.1647 252.276Z" fill="#FE8A8B"/>
<path d="M55.5158 243.359L52.9857 247.568C55.2267 248.254 57.2659 249.479 58.925 251.136L63.8546 242.812L55.5158 243.359Z" fill="#FE8A8B"/>
<path d="M85.2836 220.341C91.7694 207.584 94.3589 186.848 88.5146 175.946C82.6704 165.043 71.5995 161.107 68.8674 162.391C66.1353 163.676 58.8181 180.713 51.9285 188.548C45.0389 196.384 26.2113 218.439 25.6293 220.293C25.0472 222.148 39.2422 237.117 65.8978 248.115C69.105 249.47 85.2836 220.341 85.2836 220.341Z" fill="#648381"/>
<path d="M65.5057 229.985L61.2532 238.712C61.2532 238.712 82.207 217.691 90.9497 201.997C89.9929 208.273 88.0989 214.369 85.3311 220.081C85.3311 220.081 69.1525 249.21 65.969 247.902C61.4076 246.024 57.2501 244.026 53.4252 241.958L65.5057 229.985Z" fill="#2A5629"/>
<path d="M145.71 116.89C144.273 111.053 144.297 105.084 143.952 99.0561C143.691 94.5856 143.465 90.4956 139.415 87.8324C136.36 86.0166 132.762 85.3426 129.258 85.93C119.898 87.119 117.89 96.2502 118.568 104.953C119.114 111.576 121.704 117.925 124.257 123.977C120.824 123.822 116.121 122.027 114.066 119.149C114.908 122.913 116.793 126.362 119.506 129.101C109.528 128.923 100.274 122.395 94.9885 113.645C89.7025 104.894 88.0276 94.1219 88.5859 83.7899C89.263 71.5318 93.076 59.25 100.643 49.8097C115.883 30.7865 145.223 28.6226 163.1 44.935C169.289 50.6776 173.735 58.0495 175.929 66.2053C178.734 77.0216 178.934 88.3497 176.511 99.2582C175.661 103.508 175.054 107.803 174.694 112.123C174.551 113.514 172.865 129.695 173.839 129.636C167.543 130.016 160.297 128.744 156.021 123.929C157.933 127.234 159.584 130.421 161.497 133.738C153.55 132.406 147.706 124.987 145.71 116.89Z" fill="#575761"/>
<path d="M113.008 94.8465C110.193 93.182 106.808 92.2784 104.194 94.9298C100.358 98.8414 105.822 117.009 114.113 112.586C114.113 112.586 126.122 129.397 134.936 134.153C143.75 138.909 150.034 136.531 153.336 133.131C156.638 129.73 167.887 115.808 169.966 101.029C170.691 95.762 169.966 85.4062 170.073 83.1948C170.572 76.394 173.138 70.8178 167.781 65.4913C162.29 60.0658 154.975 56.886 147.266 56.5742C142.448 56.47 137.665 57.418 133.251 59.3522C128.836 61.2864 124.896 64.1604 121.703 67.7741C114.636 75.7638 113.412 84.7523 113.008 94.8465Z" fill="#FFC5C7"/>
<path d="M105.56 99.9003C106.285 96.5713 109.124 95.9173 111.227 98.2358C113.329 100.554 113.757 108.14 113.198 109.245C112.64 110.351 108.922 110.28 108.221 107.985C107.52 105.691 109.682 104.24 111.785 104.918C111.785 104.918 112.367 101.565 110.597 99.4128C108.827 97.2608 107.117 98.0693 106.677 98.6281C106.326 99.0706 105.954 99.4952 105.56 99.9003Z" fill="#FE8A8B"/>
<path d="M128.522 85.1697C129.333 84.4206 130.186 83.7179 131.076 83.065C131.979 82.4094 132.941 81.8401 133.95 81.3646C134.938 80.8146 136.016 80.448 137.134 80.2826C138.233 80.1593 139.347 80.3062 140.377 80.7106V80.8652C139.863 81.0589 139.34 81.2255 138.809 81.3646L137.312 81.7808C136.338 82.0662 135.328 82.1613 134.342 82.4824C133.351 82.8138 132.383 83.211 131.444 83.6715C130.482 84.1471 129.555 84.706 128.617 85.2529L128.522 85.1697Z" fill="#575761"/>
<path d="M166.046 81.364C165.141 80.8828 164.174 80.5306 163.172 80.3176C162.176 80.0992 161.162 79.9757 160.143 79.949C159.109 79.949 158.099 80.1393 157.078 80.1393C156.02 80.1696 154.961 80.1418 153.906 80.056V79.9134C154.851 79.2528 155.93 78.8101 157.066 78.6173C158.165 78.4657 159.283 78.506 160.368 78.7362C161.441 78.8922 162.49 79.1797 163.492 79.5923C164.472 79.9862 165.379 80.5408 166.177 81.2332L166.046 81.364Z" fill="#575761"/>
<path d="M138.595 91.1376C138.595 89.6988 137.835 88.6048 136.979 88.688C136.124 88.7713 135.471 90.0079 135.506 91.4467C135.542 92.8855 136.267 93.9795 137.122 93.8962C137.977 93.813 138.63 92.5763 138.595 91.1376Z" fill="#575761"/>
<path d="M161.259 89.3302C161.259 87.8914 160.618 86.7856 159.929 86.8451C159.24 86.9045 158.741 88.1412 158.741 89.5799C158.741 91.0187 159.37 92.1245 160.071 92.0532C160.772 91.9819 161.295 90.769 161.259 89.3302Z" fill="#575761"/>
<path d="M145.686 105.107C146.737 105.775 147.957 106.123 149.201 106.11C150.445 106.097 151.658 105.724 152.695 105.036C152.632 105.589 152.427 106.116 152.1 106.566C151.773 107.016 151.336 107.374 150.83 107.605C149.765 107.975 148.597 107.915 147.575 107.438C146.637 106.974 146.316 105.987 145.686 105.107Z" fill="#FE8A8B"/>
<path d="M137.823 113.526C144.449 113.423 151.066 112.982 157.648 112.206C156.187 116.962 152.35 121.718 146.957 121.718C142.17 121.753 138.951 117.782 137.823 113.526Z" fill="#C31F2A"/>
<path d="M142.17 120.183C143.666 119.765 145.248 119.765 146.744 120.183C147.659 119.64 148.682 119.304 149.741 119.199C150.8 119.095 151.869 119.223 152.873 119.577C151.217 120.993 149.112 121.777 146.934 121.788C145.216 121.772 143.548 121.21 142.17 120.183Z" fill="#FB8384"/>
<path d="M154.393 116.224C149.611 117.6 144.514 117.4 139.854 115.654C139.854 114.952 139.771 114.227 139.723 113.513C144.403 113.418 151.97 112.847 156.021 112.396C155.676 113.747 155.127 115.038 154.393 116.224Z" fill="white"/>
<path d="M117.748 79.2237C125.486 78.8861 133.105 77.1919 140.258 74.2182C141.612 71.0794 141.66 68.2735 141.861 64.8731C143.812 68.4416 144.937 72.4033 145.152 76.4653C149.642 76.18 154.168 75.9303 158.658 75.645C159.782 72.0909 160.186 68.3477 159.846 64.6353C161.301 68.44 162.263 72.4158 162.708 76.4653C165.417 75.5023 168.862 76.9053 171.689 77.4165C175.169 69.5813 174.943 55.3852 167.46 49.4405C160.226 43.6622 147.658 42.0809 138.809 43.3649C119.993 46.0876 105.204 61.7223 106.38 81.2093C107.045 92.326 112.616 102.824 120.634 110.576C115.933 100.814 114.908 89.6816 117.748 79.2237Z" fill="#575761"/>
<path d="M352.706 145.441C359.558 118.829 343.56 91.6964 316.973 84.8378C290.386 77.9792 263.278 93.992 256.426 120.603C249.573 147.215 265.572 174.348 292.159 181.206C318.746 188.065 345.853 172.052 352.706 145.441Z" fill="#69845F"/>
<path d="M280.307 153.308H329.27C331.521 153.308 333.345 151.482 333.345 149.23V118.495C333.345 116.243 331.521 114.417 329.27 114.417H280.307C278.056 114.417 276.232 116.243 276.232 118.495V149.23C276.232 151.482 278.056 153.308 280.307 153.308Z" fill="#E4FDE1"/>
<path d="M280.307 153.308H329.27C329.805 153.309 330.334 153.205 330.829 153.002C331.323 152.798 331.772 152.499 332.151 152.121C332.529 151.743 332.829 151.295 333.034 150.8C333.239 150.306 333.345 149.777 333.345 149.242L304.836 131.265L276.327 149.242C276.327 150.306 276.744 151.328 277.488 152.088C278.232 152.848 279.244 153.286 280.307 153.308Z" fill="#E4FDE1"/>
<path d="M280.307 114.417H329.27C329.805 114.415 330.334 114.519 330.829 114.723C331.323 114.927 331.772 115.226 332.151 115.604C332.529 115.982 332.829 116.43 333.034 116.924C333.239 117.419 333.345 117.948 333.345 118.483L304.836 136.46L276.327 118.483C276.327 117.419 276.744 116.397 277.488 115.637C278.232 114.877 279.244 114.439 280.307 114.417Z" fill="#FFBF46"/>
<path d="M667.848 253.795C694.55 247.605 711.183 220.921 704.999 194.194C698.815 167.467 672.155 150.818 645.452 157.008C618.75 163.198 602.116 189.883 608.301 216.61C614.485 243.337 641.145 259.985 667.848 253.795Z" fill="#69845F"/>
<path d="M670.579 195.682H665.589C665.149 193.743 664.382 191.894 663.321 190.213L666.884 186.646C667.005 186.534 667.101 186.399 667.167 186.249C667.233 186.099 667.267 185.936 667.267 185.772C667.267 185.608 667.233 185.445 667.167 185.295C667.101 185.144 667.005 185.009 666.884 184.898L662.964 180.974C662.853 180.854 662.718 180.757 662.568 180.692C662.418 180.626 662.255 180.592 662.091 180.592C661.927 180.592 661.765 180.626 661.615 180.692C661.464 180.757 661.329 180.854 661.218 180.974L657.655 184.541C655.97 183.488 654.124 182.721 652.19 182.27V177.277C652.19 176.962 652.065 176.659 651.842 176.436C651.62 176.213 651.318 176.088 651.003 176.088H645.443C645.128 176.088 644.826 176.213 644.603 176.436C644.381 176.659 644.255 176.962 644.255 177.277V182.27C642.317 182.719 640.467 183.486 638.779 184.541L635.216 180.974C635.105 180.854 634.97 180.757 634.819 180.692C634.669 180.626 634.507 180.592 634.343 180.592C634.179 180.592 634.016 180.626 633.866 180.692C633.716 180.757 633.581 180.854 633.47 180.974L629.55 184.898C629.429 185.009 629.333 185.144 629.267 185.295C629.201 185.445 629.167 185.608 629.167 185.772C629.167 185.936 629.201 186.099 629.267 186.249C629.333 186.399 629.429 186.534 629.55 186.646L633.113 190.213C632.011 191.886 631.203 193.735 630.726 195.682H625.737C625.422 195.682 625.119 195.807 624.897 196.03C624.674 196.253 624.549 196.555 624.549 196.871V202.423C624.549 202.738 624.674 203.041 624.897 203.264C625.119 203.487 625.422 203.612 625.737 203.612H630.726C631.168 205.55 631.935 207.399 632.994 209.081L629.431 212.648C629.312 212.759 629.218 212.894 629.153 213.043C629.088 213.192 629.055 213.353 629.055 213.516C629.055 213.679 629.088 213.84 629.153 213.989C629.218 214.138 629.312 214.273 629.431 214.384L633.351 218.319C633.584 218.548 633.897 218.676 634.224 218.676C634.55 218.676 634.864 218.548 635.097 218.319L638.661 214.753C640.345 215.816 642.196 216.588 644.137 217.035V222.029C644.137 222.344 644.262 222.647 644.485 222.87C644.707 223.093 645.009 223.218 645.324 223.218H650.919C651.234 223.218 651.537 223.093 651.759 222.87C651.982 222.647 652.107 222.344 652.107 222.029V217.083C654.043 216.632 655.89 215.861 657.571 214.8L661.135 218.367C661.368 218.596 661.682 218.724 662.008 218.724C662.335 218.724 662.648 218.596 662.881 218.367L666.801 214.432C666.92 214.32 667.014 214.186 667.079 214.037C667.144 213.887 667.177 213.726 667.177 213.564C667.177 213.401 667.144 213.24 667.079 213.091C667.014 212.941 666.92 212.807 666.801 212.696L663.238 209.129C664.296 207.447 665.064 205.598 665.506 203.66H670.495C670.81 203.66 671.113 203.534 671.335 203.311C671.558 203.088 671.683 202.786 671.683 202.471V196.871C671.684 196.569 671.57 196.279 671.365 196.058C671.16 195.837 670.879 195.703 670.579 195.682ZM648.175 207.357C646.66 207.357 645.179 206.908 643.919 206.065C642.659 205.222 641.677 204.025 641.097 202.623C640.517 201.222 640.365 199.68 640.661 198.192C640.957 196.705 641.686 195.338 642.758 194.266C643.829 193.193 645.194 192.463 646.681 192.167C648.167 191.871 649.707 192.023 651.107 192.604C652.507 193.184 653.704 194.167 654.546 195.428C655.388 196.689 655.837 198.172 655.837 199.689C655.825 201.714 655.012 203.653 653.576 205.08C652.141 206.508 650.199 207.31 648.175 207.31V207.357Z" fill="#E4FDE1"/>
<path d="M648.175 188.976C646.061 188.976 643.994 189.604 642.236 190.779C640.478 191.955 639.108 193.626 638.298 195.582C637.489 197.537 637.278 199.689 637.69 201.764C638.103 203.84 639.121 205.747 640.616 207.243C642.111 208.74 644.016 209.759 646.09 210.172C648.164 210.584 650.313 210.373 652.267 209.563C654.22 208.753 655.89 207.381 657.065 205.622C658.239 203.862 658.866 201.793 658.866 199.677C658.866 196.839 657.74 194.117 655.735 192.11C653.73 190.103 651.011 188.976 648.175 188.976ZM648.175 206.156C646.888 206.156 645.629 205.774 644.559 205.058C643.488 204.342 642.654 203.325 642.161 202.134C641.669 200.944 641.54 199.634 641.791 198.37C642.042 197.106 642.662 195.945 643.573 195.034C644.483 194.123 645.643 193.502 646.906 193.251C648.168 192.999 649.477 193.128 650.667 193.621C651.856 194.115 652.873 194.95 653.588 196.021C654.303 197.093 654.685 198.352 654.685 199.641C654.685 200.497 654.517 201.344 654.19 202.134C653.862 202.925 653.383 203.643 652.778 204.248C652.174 204.853 651.456 205.333 650.667 205.66C649.877 205.988 649.03 206.156 648.175 206.156Z" fill="#FFBF46"/>
<path d="M691.901 217.511H689.347C689.113 216.518 688.711 215.573 688.159 214.717L689.965 212.91C690.023 212.851 690.07 212.782 690.101 212.705C690.133 212.629 690.149 212.547 690.149 212.464C690.149 212.381 690.133 212.299 690.101 212.222C690.07 212.146 690.023 212.076 689.965 212.018L687.969 210.009C687.849 209.893 687.69 209.829 687.523 209.829C687.357 209.829 687.198 209.893 687.078 210.009L685.272 211.816C684.413 211.262 683.464 210.86 682.469 210.627V208.071C682.469 207.903 682.403 207.743 682.285 207.625C682.167 207.507 682.006 207.44 681.839 207.44H679.012C678.845 207.44 678.685 207.507 678.567 207.625C678.449 207.743 678.383 207.903 678.383 208.071V210.627C677.387 210.86 676.439 211.262 675.579 211.816L673.786 210.009C673.666 209.893 673.506 209.829 673.34 209.829C673.174 209.829 673.014 209.893 672.895 210.009L670.887 212.018C670.829 212.076 670.782 212.146 670.751 212.222C670.719 212.299 670.703 212.381 670.703 212.464C670.703 212.547 670.719 212.629 670.751 212.705C670.782 212.782 670.829 212.851 670.887 212.91L672.693 214.717C672.14 215.573 671.739 216.518 671.505 217.511H668.951C668.784 217.511 668.624 217.577 668.506 217.695C668.388 217.814 668.321 217.974 668.321 218.141V220.983C668.321 221.15 668.388 221.31 668.506 221.428C668.624 221.546 668.784 221.613 668.951 221.613H671.505C671.736 222.606 672.138 223.551 672.693 224.407L670.887 226.214C670.829 226.273 670.782 226.342 670.751 226.419C670.719 226.495 670.703 226.577 670.703 226.66C670.703 226.743 670.719 226.825 670.751 226.901C670.782 226.978 670.829 227.047 670.887 227.106L672.895 229.115C672.953 229.174 673.023 229.22 673.099 229.252C673.175 229.284 673.257 229.3 673.34 229.3C673.423 229.3 673.505 229.284 673.581 229.252C673.658 229.22 673.727 229.174 673.786 229.115L675.579 227.308C676.442 227.856 677.389 228.258 678.383 228.497V231.041C678.381 231.124 678.396 231.207 678.427 231.284C678.458 231.361 678.505 231.432 678.564 231.49C678.622 231.549 678.692 231.596 678.769 231.627C678.847 231.658 678.929 231.673 679.012 231.671H681.839C681.923 231.673 682.005 231.658 682.082 231.627C682.159 231.596 682.229 231.549 682.288 231.49C682.347 231.432 682.393 231.361 682.424 231.284C682.455 231.207 682.471 231.124 682.469 231.041V228.497C683.463 228.258 684.41 227.856 685.272 227.308L687.078 229.115C687.136 229.174 687.206 229.22 687.282 229.252C687.359 229.284 687.441 229.3 687.523 229.3C687.606 229.3 687.688 229.284 687.765 229.252C687.841 229.22 687.91 229.174 687.969 229.115L689.965 227.106C690.023 227.047 690.07 226.978 690.101 226.901C690.133 226.825 690.149 226.743 690.149 226.66C690.149 226.577 690.133 226.495 690.101 226.419C690.07 226.342 690.023 226.273 689.965 226.214L688.159 224.407C688.713 223.551 689.115 222.606 689.347 221.613H691.901C692.068 221.613 692.228 221.546 692.346 221.428C692.464 221.31 692.53 221.15 692.53 220.983V218.141C692.53 217.974 692.464 217.814 692.346 217.695C692.228 217.577 692.068 217.511 691.901 217.511ZM680.45 223.456C679.673 223.458 678.914 223.23 678.267 222.799C677.621 222.369 677.117 221.756 676.818 221.039C676.52 220.322 676.442 219.532 676.592 218.77C676.743 218.007 677.117 217.307 677.666 216.758C678.215 216.208 678.914 215.834 679.676 215.683C680.437 215.532 681.227 215.611 681.943 215.91C682.66 216.208 683.272 216.713 683.702 217.36C684.132 218.007 684.36 218.767 684.358 219.544C684.361 220.06 684.262 220.571 684.067 221.048C683.872 221.526 683.585 221.96 683.222 222.325C682.858 222.691 682.426 222.981 681.951 223.179C681.475 223.377 680.965 223.479 680.45 223.479V223.456Z" fill="#E4FDE1"/>
<path d="M680.449 214.111C679.371 214.109 678.315 214.427 677.417 215.025C676.519 215.623 675.818 216.474 675.404 217.471C674.989 218.468 674.88 219.566 675.089 220.626C675.298 221.685 675.816 222.658 676.578 223.423C677.34 224.187 678.312 224.708 679.37 224.92C680.428 225.131 681.524 225.024 682.521 224.611C683.518 224.198 684.371 223.499 684.97 222.601C685.57 221.704 685.89 220.648 685.89 219.568C685.891 218.852 685.752 218.143 685.479 217.481C685.206 216.819 684.806 216.217 684.301 215.71C683.795 215.203 683.195 214.801 682.534 214.526C681.873 214.252 681.165 214.111 680.449 214.111ZM680.449 222.897C679.792 222.897 679.149 222.702 678.602 222.336C678.055 221.97 677.628 221.45 677.377 220.842C677.125 220.234 677.059 219.564 677.187 218.919C677.316 218.273 677.633 217.68 678.098 217.214C678.563 216.749 679.155 216.431 679.801 216.303C680.446 216.175 681.115 216.241 681.722 216.492C682.33 216.744 682.849 217.171 683.215 217.719C683.58 218.266 683.775 218.91 683.775 219.568C683.775 220.451 683.425 221.298 682.801 221.922C682.178 222.546 681.332 222.897 680.449 222.897Z" fill="#FFBF46"/>
<path d="M451.269 110.709C476.699 100.472 489.022 71.5396 478.794 46.0867C468.567 20.6339 439.661 8.29913 414.231 18.5363C388.802 28.7734 376.478 57.7059 386.706 83.1587C396.934 108.612 425.84 120.946 451.269 110.709Z" fill="#69845F"/>
<path d="M126.954 343.172C126.772 344.701 127.075 346.248 127.821 347.595C130.543 352.556 131.892 358.154 131.729 363.812C131.61 367.51 130.85 371.302 131.86 374.869C133.594 381.028 140.08 384.833 142.17 390.872C144.023 396.223 142.301 402.964 146.15 407.125C146.575 407.685 147.155 408.107 147.819 408.338C148.483 408.568 149.199 408.597 149.88 408.421C150.515 408.111 151.069 407.655 151.495 407.09C155.902 402.072 160.63 395.973 159.264 389.434C157.993 383.299 151.661 379.137 150.462 372.979C149.488 367.949 152.053 362.147 149.179 357.903C148.383 356.714 147.242 355.834 146.375 354.716C142.942 350.317 144.213 343.302 140.27 339.355C138.981 338.128 137.363 337.302 135.613 336.977C134.634 336.774 133.622 336.777 132.644 336.984C131.665 337.191 130.739 337.599 129.926 338.183C129.112 338.766 128.428 339.511 127.917 340.372C127.405 341.232 127.077 342.19 126.954 343.184V343.172Z" fill="#788E77"/>
<path d="M152.018 421.238C152.291 417.957 152.398 414.687 152.517 411.394C152.374 408.124 152.196 404.842 151.923 401.561C151.649 398.279 151.269 395.022 150.735 391.764C150.213 388.472 149.3 385.255 148.015 382.181C145.639 376.165 143.715 369.887 141.778 363.657L138.963 354.265C137.815 351.197 136.69 348.118 135.59 345.026C136.065 348.284 136.777 351.482 137.466 354.704L140.282 364.109C142.242 370.375 144.142 376.617 146.577 382.776C147.817 385.747 148.699 388.857 149.202 392.037C149.773 395.224 150.129 398.458 150.39 401.704C150.652 404.949 150.854 408.195 150.972 411.465L152.018 421.238Z" fill="#575761"/>
<path d="M134.746 354.812C135.28 355.586 135.953 356.256 136.73 356.786C137.132 357.025 137.548 357.24 137.977 357.428C138.41 357.628 138.811 357.893 139.165 358.213L139.319 358.343L139.45 358.141C139.759 357.666 140.139 357.226 140.448 356.738C140.757 356.251 141.03 355.763 141.291 355.264C141.802 354.232 142.159 353.13 142.348 351.994H142.253C141.464 352.83 140.803 353.78 140.293 354.812C140.044 355.323 139.842 355.858 139.628 356.381C139.414 356.905 139.308 357.487 139.118 358.022L139.391 357.951C138.991 357.72 138.627 357.431 138.31 357.095C138.003 356.745 137.678 356.411 137.336 356.096C136.594 355.511 135.753 355.064 134.853 354.776L134.746 354.812Z" fill="#575761"/>
<path d="M135.542 366.012C136.1 366.475 136.73 366.987 137.288 367.403C137.891 367.846 138.526 368.244 139.189 368.592C139.854 368.913 140.567 369.175 141.22 369.543C141.868 369.914 142.481 370.344 143.049 370.827L143.251 370.994L143.453 370.72C144.328 369.543 145.122 368.308 145.829 367.022C146.526 365.718 147.103 364.353 147.551 362.944L147.456 362.884C146.481 363.99 145.61 365.184 144.855 366.452C144.122 367.727 143.475 369.05 142.919 370.411L143.334 370.304C142.654 370 141.999 369.642 141.374 369.234C140.757 368.818 140.187 368.283 139.605 367.831C138.998 367.381 138.354 366.983 137.68 366.642C137.004 366.289 136.286 366.025 135.542 365.857V366.012Z" fill="#575761"/>
<path d="M139.521 380.802C140.123 381.391 140.803 381.895 141.541 382.3C142.248 382.723 143.018 383.032 143.821 383.216C144.628 383.409 145.384 383.77 146.043 384.274C146.696 384.773 147.338 385.32 147.991 385.748L148.49 386.081L148.858 385.523C149.416 384.719 149.893 383.863 150.283 382.966C150.689 382.054 150.996 381.101 151.198 380.124L151.091 380.053C150.37 380.748 149.728 381.522 149.179 382.36C148.635 383.172 148.166 384.032 147.777 384.928L148.644 384.702C147.882 384.322 147.087 384.011 146.268 383.775C145.483 383.509 144.752 383.106 144.107 382.586C143.481 382.035 142.761 381.604 141.98 381.313C141.221 380.996 140.422 380.788 139.605 380.695L139.521 380.802Z" fill="#575761"/>
<path d="M157.244 421.88C159.798 421.452 169.396 418.385 168.719 415.876C165.844 405.116 162.97 392.905 172.936 387.638C177.687 385.106 183.746 383.822 186.466 379.137C189.186 374.453 187.214 368.175 184.684 363.182C182.154 358.188 179.125 352.862 180.206 347.381C181.394 341.65 186.763 337.405 187.63 331.627C188.818 323.72 181.156 317.36 173.791 314.268C171.285 313.222 168.529 312.33 165.892 312.96C164.012 313.492 162.336 314.577 161.081 316.075C155.914 321.866 156.116 330.604 157.304 338.273C158.492 345.942 160.285 354.051 157.399 361.267C155.344 366.38 150.961 371.195 152.137 376.581C152.6 378.745 153.942 380.624 154.512 382.776C155.89 388.566 151.079 393.785 148.882 399.326C147.538 402.932 147.247 406.847 148.042 410.613C148.837 414.38 150.685 417.842 153.372 420.596C153.876 421.107 154.494 421.491 155.176 421.714C155.858 421.937 156.584 421.994 157.292 421.88H157.244Z" fill="#AAE9A3"/>
<path d="M156.342 421.999C156.924 417.742 157.529 413.486 158.278 409.277C158.456 408.219 158.682 407.173 158.848 406.126C159.014 405.08 159.109 403.998 159.276 402.952C159.592 400.851 159.953 398.751 160.357 396.65C161.107 392.48 162.179 388.373 163.564 384.368C164.233 382.401 165.143 380.525 166.272 378.78C166.781 377.978 167.438 377.28 168.208 376.724C169.203 376.087 170.079 375.283 170.798 374.346C172.149 372.39 172.806 370.037 172.663 367.664C172.567 365.454 172.249 363.259 171.712 361.113C170.726 356.88 169.479 352.79 168.79 348.64C167.98 344.557 168.065 340.346 169.04 336.299C169.384 335.336 169.646 334.349 169.966 333.362C170.288 332.374 170.685 331.412 171.154 330.485C172.143 328.606 173.338 326.844 174.718 325.23C172.995 326.562 171.46 328.122 170.156 329.867C169.481 330.753 168.877 331.691 168.351 332.673C167.807 333.649 167.407 334.698 167.163 335.788C166.104 340.105 166.003 344.601 166.866 348.961C167.579 353.277 168.85 357.415 169.812 361.541C170.313 363.559 170.615 365.622 170.715 367.699C170.852 369.642 170.329 371.574 169.23 373.18C168.651 373.951 167.939 374.611 167.127 375.13C166.154 375.824 165.319 376.695 164.668 377.698C163.459 379.553 162.482 381.55 161.758 383.643C160.339 387.75 159.235 391.959 158.456 396.234C158.052 398.351 157.692 400.479 157.375 402.619C157.221 403.677 157.031 404.747 156.9 405.817C156.769 406.887 156.745 407.969 156.674 409.039C156.413 413.391 156.258 417.695 156.342 421.999Z" fill="#575761"/>
<path d="M173.328 337.988C172.622 338.269 171.971 338.671 171.404 339.177C170.822 339.622 170.313 340.156 169.895 340.758C169.536 341.399 169.106 341.998 168.612 342.542C168.09 343.058 167.53 343.535 166.937 343.969H167.698C167.448 343.422 167.127 342.898 166.842 342.375C166.553 341.847 166.236 341.335 165.892 340.841C165.559 340.342 165.179 339.866 164.811 339.391C164.443 338.915 164.039 338.475 163.706 337.964H163.588C163.588 338.608 163.713 339.246 163.956 339.843C164.173 340.425 164.436 340.989 164.74 341.531C165.036 342.068 165.373 342.581 165.749 343.065C166.118 343.563 166.515 344.039 166.937 344.492L167.412 344.991L167.698 344.539C168.061 343.906 168.478 343.305 168.945 342.744C169.447 342.215 170.013 341.751 170.632 341.365C171.209 340.929 171.728 340.422 172.176 339.854C172.651 339.295 173.077 338.694 173.447 338.059L173.328 337.988Z" fill="#575761"/>
<path d="M164.027 354.288C164.344 355.009 164.743 355.691 165.215 356.322C165.656 356.945 166.144 357.534 166.676 358.082C167.234 358.605 167.864 359.057 168.458 359.544C169.034 360.046 169.559 360.603 170.026 361.209L170.168 361.399L170.382 361.233C171.093 360.674 171.76 360.062 172.378 359.401C172.96 358.736 173.565 358.105 174.112 357.428C174.658 356.75 175.157 356.024 175.644 355.299C176.131 354.574 176.559 353.813 177.07 353.099L176.998 352.992C176.198 353.421 175.466 353.966 174.825 354.609C174.184 355.215 173.585 355.862 173.031 356.548C172.473 357.225 171.986 357.963 171.475 358.664C170.964 359.366 170.536 360.198 170.049 360.805H170.406C169.815 360.324 169.284 359.773 168.826 359.164C168.386 358.545 167.983 357.879 167.519 357.285C167.028 356.709 166.504 356.161 165.951 355.644C165.386 355.122 164.791 354.634 164.17 354.181L164.027 354.288Z" fill="#575761"/>
<path d="M181.132 366.891C180.347 367.821 179.514 368.71 178.638 369.554C177.782 370.387 176.856 371.124 175.953 371.932C175.055 372.757 173.989 373.378 172.829 373.751C171.67 374.072 170.467 374.209 169.265 374.156L169.788 374.536C169.57 373.548 169.288 372.575 168.945 371.623C168.637 370.661 168.239 369.729 167.757 368.841C167.26 367.944 166.662 367.106 165.975 366.344C165.282 365.539 164.406 364.911 163.421 364.513L163.35 364.632C164.058 365.293 164.667 366.054 165.155 366.891C165.654 367.711 166.082 368.568 166.498 369.436L167.685 372.087C168.089 372.967 168.434 373.894 168.778 374.786L168.945 375.226L169.313 375.166C170.558 374.93 171.779 374.58 172.96 374.12C174.172 373.703 175.361 373.223 176.523 372.681C177.657 372.097 178.659 371.288 179.469 370.303C180.306 369.338 180.933 368.208 181.31 366.986L181.132 366.891Z" fill="#575761"/>
<path d="M157.957 376.498C157.585 377.447 157.415 378.463 157.458 379.482C157.482 380.504 157.671 381.516 158.016 382.478C158.395 383.421 158.912 384.303 159.549 385.094L161.342 387.472L161.461 387.639L161.675 387.496C162.673 386.836 163.717 386.247 164.799 385.736C165.844 385.165 166.925 384.69 168.018 384.226C169.111 383.762 170.192 383.275 171.309 382.859C172.425 382.443 173.554 382.038 174.706 381.61V381.48C172.215 381.432 169.745 381.935 167.472 382.954C166.34 383.46 165.255 384.065 164.229 384.761C163.212 385.471 162.259 386.266 161.378 387.139H161.711C161.026 386.449 160.467 385.644 160.06 384.761C159.682 383.886 159.368 382.984 159.121 382.062C158.531 380.253 158.184 378.374 158.088 376.474L157.957 376.498Z" fill="#575761"/>
<path d="M139.842 449.654H167.234C169.776 449.654 171.986 447.454 172.318 444.47L176.654 410.751C177.129 407.065 174.718 403.736 171.57 403.736H135.506C132.359 403.736 129.947 407.065 130.422 410.751L134.758 444.47C135.15 447.454 137.3 449.654 139.842 449.654Z" fill="#575761"/>
<path d="M135.506 403.749H153.942C150.794 403.749 148.383 407.078 148.858 410.763L153.205 444.47C153.586 447.455 155.747 449.654 158.289 449.654H139.842C137.3 449.654 135.091 447.455 134.758 444.47L130.422 410.751C129.947 407.066 132.359 403.749 135.506 403.749Z" fill="#486967"/>
<path d="M408.121 90.1748H457.393C459.558 90.1748 461.313 88.4182 461.313 86.2513V45.2205C461.313 43.0536 459.558 41.297 457.393 41.297L408.121 41.297C405.956 41.297 404.201 43.0536 404.201 45.2205V86.2513C404.201 88.4182 405.956 90.1748 408.121 90.1748Z" fill="#E4FDE1"/>
<path d="M404.201 51.5211H461.313V45.2196C461.313 44.1759 460.899 43.1749 460.161 42.4368C459.424 41.6988 458.424 41.2842 457.381 41.2842H408.121C407.08 41.2873 406.083 41.7033 405.348 42.441C404.613 43.1787 404.201 44.1779 404.201 45.2196V51.5211Z" fill="#FFBF46"/>
<path d="M447.664 43.4967C447.979 43.4967 448.282 43.3714 448.504 43.1484C448.727 42.9254 448.852 42.6229 448.852 42.3076V40.2623C448.852 39.947 448.727 39.6445 448.504 39.4215C448.282 39.1985 447.979 39.0732 447.664 39.0732C447.349 39.0732 447.047 39.1985 446.825 39.4215C446.602 39.6445 446.477 39.947 446.477 40.2623V42.3076C446.477 42.6229 446.602 42.9254 446.825 43.1484C447.047 43.3714 447.349 43.4967 447.664 43.4967Z" fill="white"/>
<path d="M450.979 43.4967C451.294 43.4967 451.596 43.3714 451.819 43.1484C452.041 42.9254 452.166 42.6229 452.166 42.3076V40.2623C452.166 39.947 452.041 39.6445 451.819 39.4215C451.596 39.1985 451.294 39.0732 450.979 39.0732C450.664 39.0732 450.361 39.1985 450.139 39.4215C449.916 39.6445 449.791 39.947 449.791 40.2623V42.3076C449.791 42.6229 449.916 42.9254 450.139 43.1484C450.361 43.3714 450.664 43.4967 450.979 43.4967Z" fill="white"/>
<path d="M414.535 43.4967C414.85 43.4967 415.152 43.3714 415.375 43.1484C415.598 42.9254 415.723 42.6229 415.723 42.3076V40.2623C415.723 39.947 415.598 39.6445 415.375 39.4215C415.152 39.1985 414.85 39.0732 414.535 39.0732C414.22 39.0732 413.918 39.1985 413.695 39.4215C413.472 39.6445 413.347 39.947 413.347 40.2623V42.3076C413.347 42.6229 413.472 42.9254 413.695 43.1484C413.918 43.3714 414.22 43.4967 414.535 43.4967Z" fill="white"/>
<path d="M417.837 43.4967C418.152 43.4967 418.454 43.3714 418.677 43.1484C418.9 42.9254 419.025 42.6229 419.025 42.3076V40.2623C419.025 39.947 418.9 39.6445 418.677 39.4215C418.454 39.1985 418.152 39.0732 417.837 39.0732C417.522 39.0732 417.22 39.1985 416.997 39.4215C416.775 39.6445 416.649 39.947 416.649 40.2623V42.3076C416.649 42.6229 416.775 42.9254 416.997 43.1484C417.22 43.3714 417.522 43.4967 417.837 43.4967Z" fill="white"/>
<path d="M439.433 57.5967H436.356C435.838 57.5967 435.418 58.0173 435.418 58.5361V61.6158C435.418 62.1346 435.838 62.5551 436.356 62.5551H439.433C439.951 62.5551 440.371 62.1346 440.371 61.6158V58.5361C440.371 58.0173 439.951 57.5967 439.433 57.5967Z" fill="#575761"/>
<path d="M427.661 57.5967H424.584C424.066 57.5967 423.646 58.0173 423.646 58.5361V61.6158C423.646 62.1346 424.066 62.5551 424.584 62.5551H427.661C428.179 62.5551 428.599 62.1346 428.599 61.6158V58.5361C428.599 58.0173 428.179 57.5967 427.661 57.5967Z" fill="#575761"/>
<path d="M415.889 57.5967H412.813C412.294 57.5967 411.874 58.0173 411.874 58.5361V61.6158C411.874 62.1346 412.294 62.5551 412.813 62.5551H415.889C416.407 62.5551 416.828 62.1346 416.828 61.6158V58.5361C416.828 58.0173 416.407 57.5967 415.889 57.5967Z" fill="#575761"/>
<path d="M451.192 67.751H448.128C447.609 67.751 447.189 68.1715 447.189 68.6903V71.7701C447.189 72.2889 447.609 72.7095 448.128 72.7095H451.192C451.711 72.7095 452.131 72.2889 452.131 71.7701V68.6903C452.131 68.1715 451.711 67.751 451.192 67.751Z" fill="#575761"/>
<path d="M439.433 67.751H436.356C435.838 67.751 435.418 68.1715 435.418 68.6903V71.7701C435.418 72.2889 435.838 72.7095 436.356 72.7095H439.433C439.951 72.7095 440.371 72.2889 440.371 71.7701V68.6903C440.371 68.1715 439.951 67.751 439.433 67.751Z" fill="#575761"/>
<path d="M427.661 67.751H424.584C424.066 67.751 423.646 68.1715 423.646 68.6903V71.7701C423.646 72.2889 424.066 72.7095 424.584 72.7095H427.661C428.179 72.7095 428.599 72.2889 428.599 71.7701V68.6903C428.599 68.1715 428.179 67.751 427.661 67.751Z" fill="#575761"/>
<path d="M415.889 67.751H412.813C412.294 67.751 411.874 68.1715 411.874 68.6903V71.7701C411.874 72.2889 412.294 72.7095 412.813 72.7095H415.889C416.407 72.7095 416.828 72.2889 416.828 71.7701V68.6903C416.828 68.1715 416.407 67.751 415.889 67.751Z" fill="#575761"/>
<path d="M451.192 77.8926H448.128C447.609 77.8926 447.189 78.3132 447.189 78.832V81.9117C447.189 82.4305 447.609 82.8511 448.128 82.8511H451.192C451.711 82.8511 452.131 82.4305 452.131 81.9117V78.832C452.131 78.3132 451.711 77.8926 451.192 77.8926Z" fill="#575761"/>
<path d="M439.433 77.8926H436.356C435.838 77.8926 435.418 78.3132 435.418 78.832V81.9117C435.418 82.4305 435.838 82.8511 436.356 82.8511H439.433C439.951 82.8511 440.371 82.4305 440.371 81.9117V78.832C440.371 78.3132 439.951 77.8926 439.433 77.8926Z" fill="#575761"/>
<path d="M427.661 77.8926H424.584C424.066 77.8926 423.646 78.3132 423.646 78.832V81.9117C423.646 82.4305 424.066 82.8511 424.584 82.8511H427.661C428.179 82.8511 428.599 82.4305 428.599 81.9117V78.832C428.599 78.3132 428.179 77.8926 427.661 77.8926Z" fill="#575761"/>
<path d="M609.937 125.296C629.318 105.897 629.318 74.4449 609.937 55.0458C590.555 35.6468 559.132 35.6467 539.751 55.0458C520.37 74.4449 520.37 105.897 539.751 125.296C559.132 144.695 590.555 144.695 609.937 125.296Z" fill="#69845F"/>
<path d="M599.09 114.022C612.366 100.734 612.366 79.1883 599.09 65.8996C585.813 52.6109 564.287 52.6109 551.011 65.8996C537.734 79.1883 537.734 100.734 551.011 114.022C564.287 127.311 585.813 127.311 599.09 114.022Z" fill="#E4FDE1"/>
<path d="M574.896 56.1465C568.172 56.1465 561.599 58.1422 556.009 61.8812C550.418 65.6202 546.06 70.9346 543.487 77.1524C540.914 83.3702 540.241 90.212 541.553 96.8128C542.865 103.414 546.102 109.477 550.857 114.236C555.611 118.994 561.669 122.235 568.264 123.548C574.858 124.861 581.694 124.187 587.906 121.612C594.118 119.036 599.428 114.675 603.163 109.079C606.899 103.483 608.893 96.9043 608.893 90.1743C608.893 81.1495 605.311 72.4944 598.935 66.113C592.56 59.7315 583.913 56.1465 574.896 56.1465ZM577.747 119.161V114.512C577.747 114.298 577.704 114.086 577.619 113.889C577.535 113.692 577.41 113.514 577.255 113.367C577.099 113.22 576.915 113.107 576.713 113.034C576.512 112.961 576.298 112.93 576.084 112.943H573.506C573.093 112.946 572.697 113.113 572.405 113.407C572.114 113.701 571.95 114.098 571.95 114.512V119.161C565.242 118.505 558.969 115.538 554.203 110.767C549.437 105.997 546.473 99.7184 545.817 93.004H550.45C550.866 93.004 551.265 92.8386 551.559 92.5443C551.853 92.25 552.018 91.8508 552.018 91.4346V88.8783C552.018 88.6728 551.977 88.4693 551.898 88.2795C551.819 88.0898 551.704 87.9175 551.558 87.7728C551.412 87.628 551.239 87.5135 551.049 87.4359C550.859 87.3583 550.655 87.3192 550.45 87.3208H545.817C546.473 80.6063 549.437 74.3279 554.203 69.5574C558.969 64.787 565.242 61.8203 571.95 61.1639V65.8127C571.95 66.2268 572.114 66.6242 572.405 66.9182C572.697 67.2122 573.093 67.3789 573.506 67.3821H576.084C576.5 67.3821 576.899 67.2167 577.193 66.9224C577.487 66.6281 577.652 66.2289 577.652 65.8127V61.1757C584.359 61.8343 590.631 64.8018 595.397 69.5718C600.162 74.3418 603.127 80.619 603.785 87.3327H599.14C598.728 87.3327 598.332 87.4968 598.04 87.7889C597.748 88.081 597.584 88.4771 597.584 88.8902V91.4702C597.584 91.8844 597.748 92.2818 598.039 92.5758C598.331 92.8698 598.727 93.0365 599.14 93.0396H603.785C603.121 99.7414 600.157 106.006 595.4 110.768C590.642 115.53 584.383 118.496 577.688 119.161H577.747Z" fill="#FFBF46"/>
<path d="M565.347 94.1849V95.5129H557.987V94.9689C557.987 94.5743 558.046 94.2009 558.163 93.8489C558.291 93.4863 558.43 93.1823 558.579 92.9369C558.729 92.6916 558.963 92.4196 559.283 92.1209C559.603 91.8116 559.854 91.5876 560.035 91.4489C560.217 91.2996 560.521 91.0756 560.947 90.7769C561.374 90.4676 561.657 90.2649 561.795 90.1689C562.553 89.6143 563.075 89.1503 563.363 88.7769C563.662 88.3929 563.811 87.8916 563.811 87.2729C563.811 86.6756 563.619 86.2009 563.235 85.8489C562.851 85.4863 562.35 85.3049 561.731 85.3049C561.081 85.3049 560.526 85.5023 560.067 85.8969C559.609 86.2916 559.379 86.8409 559.379 87.5449H557.971C557.971 86.4783 558.323 85.6143 559.027 84.9529C559.742 84.2916 560.638 83.9609 561.715 83.9609C562.718 83.9609 563.55 84.2489 564.211 84.8249C564.883 85.4009 565.219 86.2223 565.219 87.2889C565.219 88.0996 565.022 88.7929 564.627 89.3689C564.233 89.9343 563.555 90.5636 562.595 91.2569C562.414 91.3849 562.158 91.5663 561.827 91.8009C561.497 92.0249 561.241 92.2063 561.059 92.3449C560.878 92.4836 560.675 92.6543 560.451 92.8569C560.238 93.0489 560.067 93.2569 559.939 93.4809C559.822 93.6943 559.737 93.9289 559.683 94.1849H565.347Z" fill="#575761"/>
<path d="M572.227 95.5129V92.4249H566.179V91.3209L572.403 84.1529H573.603V91.1289H575.171V92.4249H573.603V95.5129H572.227ZM567.971 91.1289H572.227V86.2329L567.971 91.1289Z" fill="#575761"/>
<path d="M576.071 97.2729L582.247 84.1529H583.543L577.367 97.2729H576.071Z" fill="#575761"/>
<path d="M586.387 95.5129H584.851L590.147 85.4969H584.339V84.1529H591.795V85.3049L586.387 95.5129Z" fill="#575761"/>
</svg>
