<svg width="120" height="120" viewBox="0 0 120 120" fill="none" xmlns="http://www.w3.org/2000/svg">
<g id="smartphone 2">
<g id="layer1">
<path id="path19063" d="M36.3264 3.74756H83.6702C88.8005 3.74756 93.0452 7.91411 93.0452 13.1225V106.873C93.0452 112.066 88.8639 116.248 83.6702 116.248H36.3264C31.1327 116.248 26.9514 112.066 26.9514 106.873V13.1225C26.9514 8.02324 31.1327 3.74756 36.3264 3.74756Z" fill="#C7F9C6"/>
<path id="path19270" d="M90.7673 31.9384V31.9421C88.701 31.9704 87.0488 33.6659 87.0722 35.7324V106.971C87.0722 108.881 86.2787 110.267 84.04 110.267H40.926C37.367 110.267 36.3544 114.056 37.8608 116.247H83.6701C88.8639 116.247 93.0451 112.066 93.0451 106.873V32.6817C92.4078 32.2097 91.6232 31.9256 90.7673 31.9384Z" fill="#ADECAB"/>
<path id="path19065" d="M93.0452 18.3812V13.1225C93.0452 7.69478 88.6071 3.74756 83.6702 3.74756H36.3264C31.0042 3.74756 26.9514 8.11686 26.9514 13.1225V18.3812H93.0452Z" fill="#8ACB88"/>
<path id="path19067" d="M26.9514 96.4648V106.872C26.9514 112.066 31.1327 116.248 36.3264 116.248H83.6702C88.8639 116.248 93.0452 112.066 93.0452 106.872V96.4648H26.9514Z" fill="#8ACB88"/>
<path id="circle19075" d="M63.8655 106.356C63.8655 108.492 62.1341 110.223 59.9983 110.223C57.8625 110.223 56.1311 108.492 56.1311 106.356C56.1311 104.22 57.8625 102.489 59.9983 102.489C62.1341 102.489 63.8655 104.22 63.8655 106.356Z" fill="#C7F9C6"/>
<path id="path19426" d="M87.0722 96.4648V106.971C87.0722 108.881 86.2787 110.267 84.04 110.267H40.926C37.367 110.267 36.3544 114.056 37.8608 116.248H83.6701C83.9948 116.248 84.3137 116.233 84.6296 116.198C89.3685 115.719 93.0451 111.74 93.0451 106.87V96.4629L87.0722 96.4648Z" fill="#76C073"/>
<path id="path20132" d="M49.7504 9.18701C47.2498 9.31599 47.4436 13.0671 49.9441 12.9379H70.152C72.6526 12.9379 72.6526 9.18701 70.152 9.18701C63.3573 9.18701 56.5307 9.18701 49.7504 9.18701Z" fill="#C7F9C6"/>
</g>
</g>
</svg>
